# xmcd CD database file
#
# Track frame offsets:
#	150
#	32293
#	50385
#	75202
#	119489
#	146573
#	181694
#	221076
#	241992
#
# Disc length: 3560 seconds
#
# Revision: 0
# Processed by: cddbd v1.5.2PL0 Copyright (c) Steve Scherf et al.
# Submitted via: CDex 1.79
#
DISCID=6c0de609
DTITLE=LABTrio - Nature City
DYEAR=1900
DGENRE=Jazz
TTITLE0=Elevator
TTITLE1=Variation 15
TTITLE2=Lumen
TTITLE3=Ihor
TTITLE4=Fugue
TTITLE5=Inside Now
TTITLE6=Mental Floss
TTITLE7=Happy Famous Artists
TTITLE8=Amnesiac
EXTD=
EXTT0=
EXTT1=
EXTT2=
EXTT3=
EXTT4=
EXTT5=
EXTT6=
EXTT7=
EXTT8=
PLAYORDER=
